<?xml version="1.0" standalone="no"?>
<svg xmlns="http://www.w3.org/2000/svg" viewBox="0 0 80 71" width="80" height="71"><g fill="#1CDAFF" color="#1CDAFF" transform="translate(17.768 0) scale(0.44) "><svg width="100.0" height="100.0" x="0.0" y="0.0" viewBox="0 0 100 100"><path d="M49.831,14.185c-11.014,0-19.939,7.899-19.939,17.645s2.393,43.563,20.334,43.563c17.546,0,19.539-33.818,19.539-43.563  S60.841,14.185,49.831,14.185z M49.703,38.537c-8.658,0-15.674-4.655-15.674-10.398c0-5.739,7.016-10.396,15.674-10.396  s15.678,4.657,15.678,10.396C65.381,33.882,58.36,38.537,49.703,38.537z"></path><rect x="38.169" y="10.956" width="1.392" height="6.886"></rect><path d="M40.891,10.042c0,1.125-0.913,2.039-2.041,2.039c-1.129,0-2.041-0.914-2.041-2.039C36.81,8.913,37.722,8,38.851,8  C39.979,8,40.891,8.913,40.891,10.042z"></path><path d="M31.988,33.898c-2.725,0-4.955,2.034-5.31,4.662c-0.332,0.294-0.656,0.604-0.963,0.947  c-3.261,3.657-4.672,9.706-4.025,17.112c-2.639,1.149-4.781,6.55-0.225,9.728c-0.37-1.668,0.414-5.089,2.825-5.459  c1.671-0.466,4.36,0.927,4.36,4.265c1.998-2.003,2.627-8.841-1.412-8.95c-0.475-5.302,0.271-9.674,2.079-12.281  c0.79,0.455,1.694,0.735,2.67,0.735c2.968,0,5.379-2.407,5.379-5.378C37.367,36.307,34.956,33.898,31.988,33.898z"></path><path d="M79.642,58.062c-0.135-10.955-3.369-17.285-7.252-20.211c-0.629-2.273-2.688-3.952-5.158-3.952  c-2.977,0-5.384,2.409-5.384,5.38c0,2.971,2.407,5.378,5.384,5.378c1.179,0,2.26-0.391,3.146-1.035  c1.818,2.248,3.479,6.458,3.684,13.647c-4.865-0.204-5.679,7.021-1.008,9.547c-0.392-3.283,0.854-5.373,2.803-5.649  c2.686,0.092,2.591,4.517,2.411,5.935C83.041,64.24,82.937,59.44,79.642,58.062z"></path><path d="M37.37,28.908c2.084-1.392,6.401-1.89,8.813-0.808c0.504,0.226,0.818,0.069,0.695-0.469  c-1.414-6.17-9.97-5.037-10.282,0.934C36.567,29.116,36.911,29.214,37.37,28.908z"></path><path d="M52.7,28.204c2.279-1.041,6.619-0.842,8.826,0.612c0.461,0.304,0.796,0.2,0.761-0.351  c-0.407-6.319-9.036-6.565-10.297-0.723C51.874,28.282,52.197,28.433,52.7,28.204z"></path><ellipse cx="50" cy="89.5" rx="14" ry="2.5"></ellipse></svg></g><path fill="#1CDAFF" fill-rule="nonzero" d="M7.18 18.19L3.67 18.48L3.67 3.14L0 3.14L0.26 0.34L10.82 0.34L10.54 3.14L7.18 3.14L7.18 18.19ZM21.84 18.34L12.79 18.34L12.79 0.34L21.94 0.34L21.65 3.14L16.32 3.14L16.32 7.44L20.11 7.44L20.09 10.46L16.32 10.46L16.32 15.53L22.13 15.53L21.84 18.34ZM29.28 18.67Q26.18 18.67 24.92 15.86Q23.66 13.06 23.66 8.95L23.66 8.95Q23.66 6.74 24.24 4.70Q24.82 2.66 26.10 1.33Q27.38 0 29.35 0L29.35 0Q30.86 0 32.00 0.94Q33.14 1.87 33.76 3.37Q34.37 4.87 34.37 6.50L34.37 6.50L30.96 6.67Q30.96 5.59 30.60 4.21Q30.24 2.83 29.16 2.83L29.16 2.83Q28.03 2.83 27.60 4.63Q27.17 6.43 27.17 8.95L27.17 8.95Q27.17 12.07 27.65 13.96Q28.13 15.84 29.50 15.84L29.50 15.84Q30.46 15.84 30.86 14.70Q31.27 13.56 31.39 11.93L31.39 11.93L34.39 12.22Q34.39 13.94 33.82 15.42Q33.24 16.90 32.09 17.78Q30.94 18.67 29.28 18.67L29.28 18.67ZM40.44 18.19L36.91 18.48L36.91 0.62L40.44 0.34L40.44 7.63L43.80 7.63L43.80 0.62L47.33 0.34L47.33 18.19L43.80 18.48L43.80 10.85L40.44 10.85L40.44 18.19ZM54.22 18.19L50.69 18.48L50.69 0.34L59.83 0.34L59.54 3.17L54.22 3.17L54.22 7.87L57.98 7.87L57.98 10.85L54.22 10.85L54.22 18.19ZM65.26 18.19L61.73 18.48L61.73 0.62L65.26 0.34L65.26 18.19ZM70.27 18.34L66.94 18.34L71.42 9.19L67.13 0.34L71.33 0.34L73.42 5.02L75.58 0.34L78.94 0.34L74.88 8.52L79.54 18.34L75.36 18.34L72.82 12.70L70.27 18.34Z" transform="translate(0, 52)"></path></svg>